<svg xmlns="http://www.w3.org/2000/svg" viewBox="0 0 512 512">
  <path d="M478.7 364.6zm-22 6L429 354.9a16 16 0 01-7-19.2A184 184 0 11256 72c5.9 0 11.7.3 17.5.8l-2.3-.2A16 16 0 01256 56.8v-32a16 16 0 0115.3-16c-5-.3-10.1-.8-15.3-.8a248 248 0 10222.7 356.6 16 16 0 01-22 6z" opacity=".4"/>
  <path d="M271.2 72.6A16 16 0 01256 56.8v-32a16 16 0 0116.8-16.2A248 248 0 01504 256a246 246 0 01-25 108.2 16 16 0 01-22.3 6.5l-27.8-16a16 16 0 01-6.2-21A182.5 182.5 0 00440 256 184 184 0 00271.2 72.6z" class="fa-primary"/>
</svg>